<?xml version="1.0" encoding="utf-8"?>
<!-- Generator: Adobe Illustrator 27.0.0, SVG Export Plug-In . SVG Version: 6.00 Build 0)  -->
<svg version="1.1" id="Layer_1" xmlns="http://www.w3.org/2000/svg" xmlns:xlink="http://www.w3.org/1999/xlink" x="0px" y="0px"
	 viewBox="0 0 780 416" style="enable-background:new 0 0 780 416;" xml:space="preserve">
<style type="text/css">
	.st0{fill:none;stroke:#221E20;stroke-width:3.2;stroke-miterlimit:10;}
	.st1{fill:none;stroke:#221E20;stroke-width:1.6;stroke-miterlimit:10;}
	.st2{fill:none;stroke:#FDDA9A;stroke-width:12.1283;stroke-linecap:round;stroke-miterlimit:10;}
	.st3{fill:#BCDAD6;stroke:#221E20;stroke-width:2.0214;stroke-miterlimit:10;}
	.st4{fill:#221E20;}
	.st5{fill:#A2A2A2;stroke:#221E20;stroke-width:4.0428;stroke-linecap:round;stroke-linejoin:round;stroke-miterlimit:10;}
	.st6{fill:#515151;stroke:#221E20;stroke-width:4.0428;stroke-linecap:round;stroke-linejoin:round;stroke-miterlimit:10;}
	.st7{fill:#A2A2A2;stroke:#221E20;stroke-width:1.5876;stroke-miterlimit:10;}
	.st8{fill:#515151;stroke:#221E20;stroke-width:1.5876;stroke-miterlimit:10;}
</style>
<image style="overflow:visible;" width="428" height="398" xlink:href="1CE97593DC94CFCB.png"  transform="matrix(1 0 0 1 -0.3021 8.5455)">
</image>
<g>
	<g>
		<path class="st0" d="M781.21,266.19c-5.4-4.31-10.86-8.66-17.07-11.69c-2.5-1.22-5.12-2.22-7.48-3.69
			c-1.92-1.2-3.65-2.68-5.36-4.17c-4.45-3.85-7.53-8.3-11.15-12.95c-3.28-4.21-8.58-7.66-12.89-10.83
			c-9.73-7.15-20.19-13.6-28.09-22.89c-1.72-2.03-3.38-4.75-5.75-5.97c-0.85-2.15-1.48-4.52-3.4-5.8c-1.9-1.26-4.34-1.28-6.62-1.21
			c-5.08,0.17-10.16,0.56-15.21,1.19c-1.15,0.14-2.34,0.31-3.37,0.85c-1.04,0.55-1.85,1.44-2.64,2.32c-2.1,2.34-4.21,4.68-6.31,7.02
			c-4.68,0.41-9.51,0.64-14.19,1.05c-2.58,0.22-5.23,0.47-7.55,1.62c-2.02,1-3.66,2.62-5.26,4.21c-3.58,3.57-7.16,7.14-10.74,10.71
			c-2.11,2.1-4.33,4.43-4.75,7.38"/>
		<path class="st1" d="M656.04,198.68c-0.45,0.57-0.91,1.14-1.36,1.7c-1.16,1.44-2.37,3.06-2.31,4.91c0.06,1.86,1.48,3.47,3.19,4.2
			s3.65,0.71,5.48,0.43c1.98-0.3,3.98-0.93,5.47-2.26c0.75-0.68,1.34-1.51,2-2.27c0.93-1.07,2.01-2.01,3.2-2.79
			c0.32,1.22,1.49,2.14,2.7,2.52c1.21,0.38,2.5,0.33,3.76,0.28c0.63-0.02,1.26-0.05,1.89-0.07c0.89,2.72,1.85,5.16,2.13,8.07
			c0.08,0.82-0.46,2.98,0.02,3.63c-0.18-0.25-0.47-0.4-0.78-0.42"/>
		<path class="st1" d="M636.57,220.97c1.03-2.32,2.06-4.64,3.09-6.95c2.48-5.58,5.07-11.32,9.54-15.47"/>
		<path class="st1" d="M627.39,221.38c0.95-2.18,1.91-4.36,2.86-6.54c0.96-2.19,0.9-3.77,1.73-6.01c0.98-2.62,3.03-4.72,5.36-6.26
			c2.33-1.54,4.96-2.56,7.56-3.58"/>
		<path class="st1" d="M649.53,242c5.29-0.51,10.69,0.16,15.69,1.94c0.32,0.12,0.66,0.24,1,0.2c0.33-0.03,0.63-0.22,0.92-0.38
			c2.21-1.28,4.74-2.03,7.29-2.15c0.14-0.43,0.06-0.93-0.21-1.29"/>
		<path class="st1" d="M657.25,222.35c1.45,0.45,2.98,0.62,4.49,0.49c1.84,0.07,3.67,0.24,5.51,0.3c0.21,0.01,0.44,0.02,0.62,0.13
			c0.22,0.13,0.35,0.37,0.53,0.55c0.31,0.32,0.76,0.46,1.18,0.58c1.37,0.4,2.74,0.81,4.11,1.21c0.24,5.07,0.67,10.12,0.92,15.19"/>
		<path class="st1" d="M637.73,262.24c8.19,2.37,16.74,3.49,25.26,3.32c0.39,0.7,1.56,0.46,2.35,0.57c0.8,0.11,1.61,0.02,2.4,0.1
			c1.88,0.19,3.52,1.29,5.08,2.36c1.94,1.33,3.88,2.65,5.83,3.98c7.4,5.06,16.16,6.83,25.12,7.18c6.15,0.24,12.37-0.56,18.43,0.47
			c2.84,0.48,5.68,1.37,8.55,1.09c1.46-0.14,2.87-0.58,4.23-1.13c3.99-1.62,7.57-4.22,10.34-7.51"/>
		<path class="st1" d="M730.15,281.85c6.91,3.56,12.2,8.98,18.09,13.81c6.78,5.56,14.1,10.48,20.88,16.07
			c2.59,2.14,5.16,4.32,7.34,6.86c-0.38-0.42-0.77-0.83-1.15-1.25"/>
		<path class="st1" d="M685.65,219.38c2.28,1.2,4.78,2.07,7.36,2.13s5.23-0.74,7.1-2.52"/>
		<path class="st1" d="M654.96,222.32c1.66-2.33,2.2-5.41,1.45-8.17"/>
		<path class="st1" d="M672.08,223.86c0.11-2.56,1.5-4.87,2.92-7.01c1.3-1.96,3.03-4.09,5.39-4.12c-0.23-0.12-0.46-0.24-0.68-0.35"
			/>
		<path class="st1" d="M656.89,197.54c1.18,0.98,2.37,1.96,3.55,2.94c0.07,0.06-0.13,0.09-0.09,0.01"/>
		<path class="st1" d="M659.96,200.61c-0.78,1.03-1.56,2.06-2.33,3.09c-0.95,1.26-2.19,2.65-3.75,2.48
			c-0.78-0.08-1.57-0.77-1.41-1.55"/>
		<path class="st1" d="M627.34,263.92c2.73,10.01-2.23,20.5-1.87,30.87c0.14,4.22,1.17,8.41,0.85,12.63"/>
		<path class="st0" d="M620.94,336.4c1.04-4.67,1.44-9.46,2.08-14.21c0.58-4.28,1.28-8.6,2.32-12.79c0.93-3.72,3.23-7.17,3.66-10.99
			c0.3-2.71,0.18-4.86,1.04-7.41c0.98-2.9,1.76-5.88,2.63-8.82c0.62-2.1,0.39-3.26,0.71-5.43c0.52-3.59,2.56-5.76,6.3-5.64
			c1.34,0.05,2.7,0.18,3.97,0.61c3.96,1.36,6.41,5.51,6.99,9.66c0.58,4.14-0.38,8.33-1.33,12.4c-0.52,2.24-1.05,4.49-1.57,6.73
			c-1.12,4.81-2.82,9.64-3.67,14.51c-1.26,7.21-2.6,14.44-4.12,21.66c-0.22-0.11-0.45-0.22-0.67-0.32"/>
		<path class="st0" d="M659.02,334.08c0.36,0.24,0.72,0.49,1.08,0.73c0.51-3.5,0.46-7.07-0.13-10.55c-0.39-2.3-1.02-4.57-1.16-6.91
			c-0.17-2.77,0.37-5.57-0.01-8.32c-0.43-3.09-2.24-6.16-5.15-7.29c-2.91-1.13-6.79,0.37-7.54,3.4c-0.47,1.9-0.65,3.86-0.77,5.82
			c-0.18,3.06,0.14,6.14-0.05,9.2c-0.3,4.8-1.88,9.51-4.55,13.51"/>
		<path class="st1" d="M647.74,307.44c0.85-1.01,2.2-1.5,3.52-1.51c1.32-0.02,2.61,0.4,3.81,0.93"/>
		<path class="st1" d="M647.63,306.93c-0.16,1.15-0.32,2.32-0.15,3.46c0.51,3.25,4.92,5.03,7.08,2.06c1.17-1.61,0.12-3.76,0.18-5.58
			"/>
		<path class="st1" d="M642.8,285.31c-2.65,0.53-5.56-0.49-7.3-2.56"/>
		<path class="st1" d="M635.78,280.21c-0.48,0.82-0.65,1.82-0.46,2.75c0.02-2.34,0.57-5.17,0.9-7.49"/>
		<path class="st1" d="M636.81,275.59c1.85-0.37,3.76-0.43,5.62-0.18c0.89,0.12,1.79,0.32,2.54,0.81s1.34,1.3,1.35,2.2
			c-0.26-0.07,0.2,0.63-0.06,0.56c-0.76,2.1-1.76,4.12-2.97,5.99"/>
		<path class="st1" d="M624.59,264.35c0.29,2.01,0.57,4.08,0,6.03c-0.57,1.95-2.22,3.73-4.25,3.76c-1.23,0.02-2.39-0.6-3.39-1.32
			c-0.78-0.56-1.52-1.21-1.94-2.07c-0.44-0.9-0.48-1.94-0.51-2.95c-0.05-1.51-0.1-3.02-0.15-4.53"/>
		<path class="st1" d="M611.21,265.02c-0.62,5.42-1.24,10.84-1.86,16.26c-0.32,2.84-0.65,5.69-1.19,8.5
			c-0.65,3.39-1.61,6.72-2.3,10.1c-0.71,3.52-1.12,7.1-1.53,10.66c-1.04,9.1-2.07,18.2-3.11,27.3"/>
		<path class="st0" d="M599.47,263.19c-2.61,1.75-4.27,4.62-5.32,7.58c-1.05,2.96-1.59,6.07-2.49,9.08
			c-0.76,2.54-1.78,4.99-2.49,7.54c-0.64,2.3-1.04,4.66-1.17,7.05c-0.43,7.81-2.18,15.46-4.24,22.98c-1,3.65-2.01,7.31-3.11,10.93
			c-0.84,2.76-2.42,5.01-2.51,8.01"/>
		<path class="st1" d="M600.69,264.26c-0.11,2.68-0.22,5.37-0.33,8.05c-0.08-0.19-0.15-0.38-0.23-0.58c2.51,1.9,6.11,2.68,8.74,0.95
			c-0.17-0.15-0.34-0.3-0.5-0.45"/>
		<path class="st1" d="M608.76,272.22c0.54-2.07,1.07-4.14,1.61-6.21"/>
		<path class="st1" d="M610.63,265.5c-0.74-1.78-2.87-2.86-4.74-2.41"/>
		<path class="st1" d="M568.02,337.32c-1.41-6.69-2.82-13.37-4.23-20.06c-0.44-2.1-0.89-4.21-1.64-6.22
			c-0.86-2.29-2.1-4.42-3.34-6.53c-1.59-2.72-3.19-5.44-4.78-8.16c-2.22-3.78-4.96-7.66-9.93-6.31c-1.76,0.48-3.36,2.12-3.14,3.93"
			/>
		<path class="st0" d="M543.93,307.15c-1.84,9.94,1.72,20.17,0.77,30.23c-0.57-0.67-1.14-1.35-1.7-2.02"/>
		<path class="st1" d="M544.07,306.8c-1.06-3.72-1.93-7.5-2.58-11.32c-0.11-0.66-0.45-1.52-1.12-1.43"/>
		<path class="st1" d="M540.52,294.14c1.74-0.3,3.62,0.49,4.62,1.95c0.57,0.84,0.85,1.84,1.1,2.82c0.52,2.06,0.96,4.14,1.3,6.23
			c-1.61,0.5-3.38,1.13-5.05,0.93"/>
		<path class="st2" d="M653.76,226.84l1.75-2c0,0-0.25-1.5-3.49-2.25c-3.24-0.75-41.41-1-41.41-1s-33.43,0.25-36.67,2.99l1.25,2.74
			l1.25,1.75c0,0,5.99,26.44,17.21,31.43l2.49,2.25c0,0,37.48,3.69,38.17,0.25c0.25-1.25,1.75-2.25,1.75-2.25
			S645.03,260.02,653.76,226.84z"/>
		<path class="st3" d="M653.76,226.84l1.75-2c0,0-0.25-1.5-3.49-2.25c-3.24-0.75-41.41-1-41.41-1s-33.43,0.25-36.67,2.99l1.25,2.74
			l1.25,1.75c0,0,5.99,26.44,17.21,31.43l2.49,2.25c0,0,37.48,3.69,38.17,0.25c0.25-1.25,1.75-2.25,1.75-2.25
			S645.03,260.02,653.76,226.84z"/>
		<path class="st1" d="M561.82,309.14c4.31,2.4,8.32,4.14,11.46,4.61"/>
		<path class="st0" d="M641.68,199.44c-2.85-7.94-6.63-16.5-6.63-16.5s-7.98-8.98-13.97-18.96c-5.99-9.98-9.48-1-9.48-1
			l-14.47-19.46c0,0-33.43-46.4-94.79-14.47s-18.96,104.77-18.96,104.77l5.49,8.98c0,0,6.98,5.99,5.49,5.99s-11.48,2.99-4.99,12.97
			c6.49,9.98,14.47,11.97,14.47,11.97l9.48,5.49c0,0,9.98,12.47,13.47,3.49c0,0,6.17,5.33,14.14,11.3"/>
		<path class="st1" d="M575.68,252.78c0,0-7.48,2-6.49-7.48"/>
		<path class="st4" d="M562.71,198.9l4.49-0.5c0,0,3.49-24.45,29.44-24.95l4.99-6.49C601.62,166.97,562.71,162.48,562.71,198.9z"/>
		<path class="st4" d="M548.24,205.39l1,6.49c0,0-32.43-1-37.42,21.95l-4.99,1C506.83,234.82,509.32,203.39,548.24,205.39z"/>
		<polygon class="st1" points="553.89,223.41 544.22,226.43 533.73,234.78 530.47,240.48 528.8,241.81 537,238.4 551.5,227.26 		"/>
		<path class="st4" d="M539.35,233.03c-0.5-0.63-0.71-1.37-0.77-2.11l5.09-4.05c0.71,0.23,1.38,0.6,1.88,1.23
			c0.74,0.93,0.95,2.07,0.76,3.15l-4.23,3.25C541.05,234.4,540.05,233.91,539.35,233.03z"/>
		<polygon class="st1" points="574.41,207.1 579.53,198.36 590.02,190.01 596.31,188.13 597.98,186.8 592.82,194.02 578.7,205.64 		
			"/>
		<path class="st4" d="M587.06,195.1c-0.5-0.63-1.17-0.99-1.88-1.23l-5.09,4.05c0.07,0.74,0.27,1.48,0.77,2.11
			c0.74,0.93,1.8,1.39,2.9,1.45l4.12-3.39C588.01,197.06,587.76,195.98,587.06,195.1z"/>
		<g>
			<path d="M686.26,303.97c0.24,0.34,0.48,0.68,0.72,1.02c-6.15-8.75-13.91-16.49-21.04-24.4c-4.69-5.19-9.37-10.39-14.06-15.58
				c2.12,0.24,4.25,0.39,6.39,0.47C667.7,278.24,677.12,291,686.26,303.97z"/>
		</g>
		<g>
			<path d="M578.49,287.54c-5.31-10.7,2.02-22.63,7.6-33.19c5.11,4.9-1.29,6.52-3.2,11.85c-1.58,4.42-1.29,9.65,0.62,13.92
				c1.34,3.01,3.25,5.63,5.49,8.02c-0.53,2.06-0.88,4.17-1,6.3c-0.06,1.01-0.19,2.01-0.29,3.02
				C583.91,294.79,580.54,291.66,578.49,287.54z"/>
		</g>
	</g>
	<g>
		<path class="st5" d="M502.55,63.67c0,0-12.72-9.97-28.18-9.11c0,0,0.17,9.79,2.66,17.79L502.55,63.67z"/>
		<path class="st5" d="M429.86,120.2c0,0-6.53-14.78-1.89-29.56c0,0,9.45,2.58,16.58,6.96L429.86,120.2z"/>
		<path class="st6" d="M523.33,165.41c34.63-25.69,56.37-37.63,56.37-37.63s-25-28.96-54.47-55.68s-62.12,11.08-62.12,11.08
			l-4.64,3.61c0,0-44.68,22.33-26.04,57.48s40.55,66.51,40.55,66.51S489.91,192.64,523.33,165.41z"/>
	</g>
	<g>
		<path class="st7" d="M502.55,63.67c0,0-12.72-9.97-28.18-9.11c0,0,0.17,9.79,2.66,17.79L502.55,63.67z"/>
		<path class="st7" d="M429.86,120.2c0,0-6.53-14.78-1.89-29.56c0,0,9.45,2.58,16.58,6.96L429.86,120.2z"/>
		<path class="st8" d="M523.33,165.41c34.63-25.69,56.37-37.63,56.37-37.63s-25-28.96-54.47-55.68s-62.12,11.08-62.12,11.08
			l-4.64,3.61c0,0-44.68,22.33-26.04,57.48s40.55,66.51,40.55,66.51S489.91,192.64,523.33,165.41z"/>
	</g>
</g>
</svg>
