<?xml version="1.0" encoding="utf-8"?>
<!-- Generator: Adobe Illustrator 27.0.0, SVG Export Plug-In . SVG Version: 6.00 Build 0)  -->
<svg version="1.1" id="Layer_1" xmlns="http://www.w3.org/2000/svg" xmlns:xlink="http://www.w3.org/1999/xlink" x="0px" y="0px"
	 viewBox="0 0 800 1374" style="enable-background:new 0 0 800 1374;" xml:space="preserve">
<style type="text/css">
	.st0{fill:#BC3D26;}
	.st1{font-family:'Roboto-BlackItalic';}
	.st2{font-size:48px;}
	.st3{fill:none;}
	.st4{font-family:'Roboto-Regular';}
	.st5{font-size:28px;}
	.st6{fill:none;stroke:#BC3D26;stroke-miterlimit:10;}
</style>
<image style="overflow:visible;" width="1879" height="2288" xlink:href="4ECFB0D43E7FE785.jpg"  transform="matrix(0.4248 0 0 0.4248 0.8313 3.0455)">
</image>
<text transform="matrix(1.2277 0 0 1 284.2336 1244.1064)" class="st0 st1 st2">Timeline</text>
<g>
	<rect x="172.18" y="778.61" class="st3" width="442.32" height="676.44"/>
	<text transform="matrix(1 0 0 1 196.9836 799.6085)"><tspan x="0" y="0" class="st4 st5">Celadon produced in Longquan, </tspan><tspan x="14.05" y="33.6" class="st4 st5">Zhejiang province, is a typical </tspan><tspan x="-4.33" y="67.2" class="st4 st5">example of craftsmen’s extreme </tspan><tspan x="-12.95" y="100.8" class="st4 st5">pursuit of a perfect greenish glint. </tspan><tspan x="11.85" y="134.4" class="st4 st5">To produce various shades of </tspan><tspan x="-12.67" y="168" class="st4 st5">jade-like green requires dedicated </tspan><tspan x="-6.56" y="201.6" class="st4 st5">effort consisting of 72 key steps, </tspan><tspan x="-3.58" y="235.2" class="st4 st5">such as modeling, adjusting and </tspan><tspan x="-3.71" y="268.8" class="st4 st5">glazing, as well as firing day and </tspan><tspan x="-8.61" y="302.4" class="st4 st5">night. Plum green and light green </tspan><tspan x="77.09" y="336" class="st4 st5">are the best colors. </tspan></text>
</g>
<g>
	<g>
		<line class="st6" x1="398.83" y1="1290.85" x2="398.83" y2="1370.64"/>
		<g>
			<path class="st0" d="M389.23,1356.97c0.46-0.3,1.08-0.16,1.38,0.31l8.22,12.9l8.22-12.9c0.3-0.47,0.92-0.61,1.38-0.31
				s0.6,0.92,0.31,1.38l-9.06,14.23c-0.18,0.29-0.5,0.46-0.84,0.46s-0.66-0.18-0.84-0.46l-9.06-14.23
				c-0.11-0.17-0.16-0.35-0.16-0.54C388.77,1357.49,388.93,1357.16,389.23,1356.97z"/>
		</g>
	</g>
</g>
</svg>
