<?xml version="1.0" encoding="utf-8"?>
<!-- Generator: Adobe Illustrator 27.0.0, SVG Export Plug-In . SVG Version: 6.00 Build 0)  -->
<svg version="1.1" id="Layer_1" xmlns="http://www.w3.org/2000/svg" xmlns:xlink="http://www.w3.org/1999/xlink" x="0px" y="0px"
	 viewBox="0 0 1920 1645" style="enable-background:new 0 0 1920 1645;" xml:space="preserve">
<style type="text/css">
	.st0{fill:#BC3D26;}
	.st1{font-family:'Roboto-BlackItalic';}
	.st2{font-size:48px;}
	.st3{fill:none;}
	.st4{fill:#FFFFFF;}
	.st5{font-family:'Roboto-Regular';}
	.st6{font-size:28px;}
	.st7{fill:none;stroke:#BC3D26;stroke-miterlimit:10;}
</style>
<image style="overflow:visible;" width="1879" height="2288" xlink:href="4E83ED61B3FEF0F5.jpg"  transform="matrix(0.6776 0 0 0.6776 325.7736 -0.1761)">
</image>
<text transform="matrix(1.2277 0 0 1 846.2893 1458.0691)" class="st0 st1 st2">Timeline</text>
<g>
	<rect x="743" y="920" class="st3" width="424.79" height="603.01"/>
	<text transform="matrix(1 0 0 1 759.0391 941.0002)"><tspan x="0" y="0" class="st4 st5 st6">Celadon produced in Longquan, </tspan><tspan x="14.05" y="33.6" class="st4 st5 st6">Zhejiang province, is a typical </tspan><tspan x="-4.33" y="67.2" class="st4 st5 st6">example of craftsmen’s extreme </tspan><tspan x="-12.95" y="100.8" class="st4 st5 st6">pursuit of a perfect greenish glint. </tspan><tspan x="11.85" y="134.4" class="st4 st5 st6">To produce various shades of </tspan><tspan x="-12.67" y="168" class="st4 st5 st6">jade-like green requires dedicated </tspan><tspan x="-6.56" y="201.6" class="st4 st5 st6">effort consisting of 72 key steps, </tspan><tspan x="-3.58" y="235.2" class="st4 st5 st6">such as modeling, adjusting and </tspan><tspan x="-3.71" y="268.8" class="st4 st5 st6">glazing, as well as firing day and </tspan><tspan x="-8.61" y="302.4" class="st4 st5 st6">night. Plum green and light green </tspan><tspan x="77.09" y="336" class="st4 st5 st6">are the best colors. </tspan></text>
</g>
<g>
	<g>
		<line class="st7" x1="960.89" y1="1504.81" x2="960.89" y2="1584.6"/>
		<g>
			<path class="st0" d="M951.29,1570.93c0.46-0.3,1.08-0.16,1.38,0.31l8.22,12.9l8.22-12.9c0.3-0.47,0.92-0.61,1.38-0.31
				s0.6,0.92,0.31,1.38l-9.06,14.23c-0.18,0.29-0.5,0.46-0.84,0.46s-0.66-0.18-0.84-0.46l-9.06-14.23
				c-0.11-0.17-0.16-0.35-0.16-0.54C950.82,1571.45,950.99,1571.13,951.29,1570.93z"/>
		</g>
	</g>
</g>
</svg>
