<?xml version="1.0" encoding="utf-8"?>
<!-- Generator: Adobe Illustrator 27.0.0, SVG Export Plug-In . SVG Version: 6.00 Build 0)  -->
<svg version="1.1" id="Layer_1" xmlns="http://www.w3.org/2000/svg" xmlns:xlink="http://www.w3.org/1999/xlink" x="0px" y="0px"
	 viewBox="0 0 810 257" style="enable-background:new 0 0 810 257;" xml:space="preserve">
<style type="text/css">
	@import url('https://fonts.googleapis.com/css?family=Roboto:300,400,700');;
	.st0{opacity:0.6;}
	.st1{fill:#000;}
	.st2{font-family:'Roboto';font-weight: 700;}
	.st3{font-size:24px;}
	.st4{opacity:0.5;}
	.st5{fill:none;stroke:#231F20;stroke-width:0.5894;stroke-miterlimit:10;}
	.st6{fill:#231F20;}
	.st7{fill:#6D6E70;}
	.st8{font-family:'Roboto';font-weight: 300;}
	.st9{font-size:14px;}
	.st10{opacity:0.5;fill:none;stroke:#808184;stroke-miterlimit:10;}
	.st11{fill:none;stroke:#808184;stroke-miterlimit:10;}
	.st12{fill:#808184;}
	.st13{fill:#BD3D27;}
</style>
<g class="st0">
	
		<image style="overflow:visible;" width="356" height="259" xlink:href="C9B8C0C5C9A4568B.gif"  transform="matrix(1 0 0 1 -35.5 -27.5)">
	</image>
</g>
<g>
	<g>
		<text transform="matrix(1.0293 0 0 1 116.7005 88.1982)" class="st13 st2 st3">01</text>
		<text transform="matrix(1.0293 0 0 1 298.7415 156.6001)" class="st1 st2 st3">02</text>
		<text transform="matrix(1.0293 0 0 1 585.845 128.5269)" class="st1 st2 st3">04</text>
		<text transform="matrix(1.0293 0 0 1 700.5569 58.6582)" class="st1 st2 st3">06</text>
		<text transform="matrix(1.0293 0 0 1 636.8801 102.9863)" class="st1 st2 st3">05</text>
		<text transform="matrix(1.0293 0 0 1 515.4768 150.3252)" class="st1 st2 st3">03</text>
		<g>
			<g class="st4">
				<g>
					<g>
						<path class="st5" d="M799.96,18.12c-5.09,7.95-10.81,15.47-16.76,22.79c-1.51,1.81-2.98,3.66-4.53,5.44l-4.64,5.34l-4.77,5.23
							l-2.39,2.61l-2.46,2.54c-13.08,13.6-27.1,26.29-41.92,37.97c-29.65,23.37-62.45,42.61-96.94,57.9
							c-4.31,1.91-8.71,3.62-13.06,5.45c-2.19,0.89-4.35,1.82-6.55,2.67l-6.65,2.43l-6.65,2.43c-2.22,0.8-4.41,1.67-6.68,2.34
							l-13.48,4.31l-3.37,1.08c-1.13,0.35-2.27,0.64-3.41,0.96l-6.82,1.88l-6.82,1.88l-3.41,0.94c-1.14,0.3-2.3,0.54-3.44,0.81
							c-9.2,2.08-18.35,4.41-27.66,5.98c-37.07,7.05-74.83,10.37-112.56,10.4c-37.74-0.03-75.49-3.34-112.56-10.4
							c-9.31-1.57-18.46-3.9-27.66-5.98c-1.15-0.27-2.3-0.51-3.44-0.81l-3.41-0.94l-6.82-1.88l-6.82-1.88
							c-1.13-0.32-2.28-0.61-3.41-0.96l-3.37-1.08l-13.48-4.31c-2.26-0.68-4.46-1.55-6.68-2.34l-6.65-2.43l-6.65-2.43
							c-2.2-0.84-4.37-1.78-6.55-2.67c-4.35-1.82-8.75-3.54-13.06-5.45c-34.49-15.3-67.29-34.53-96.94-57.9
							C72.7,88.36,58.68,75.67,45.6,62.07l-2.46-2.54l-2.39-2.61l-4.77-5.23l-4.64-5.34c-1.55-1.78-3.02-3.63-4.53-5.44
							c-5.95-7.32-11.67-14.84-16.76-22.79"/>
						<g>
							<path class="st6" d="M798.88,19.79c-0.98-0.64-1.29-1.9-0.71-2.8c0.58-0.91,1.83-1.14,2.84-0.56
								c1.02,0.59,1.35,1.88,0.75,2.83C801.16,20.2,799.86,20.43,798.88,19.79z"/>
							<path class="st6" d="M786.41,40.37c-0.7,0.86-2.01,0.95-2.92,0.21c-0.91-0.74-1.08-2.02-0.39-2.87
								c0.67-0.86,1.96-0.96,2.88-0.23C786.9,38.2,787.09,39.5,786.41,40.37z"/>
							<path class="st6" d="M769.32,60.01c-0.74,0.82-2.06,0.81-2.91,0c-0.85-0.81-0.92-2.09-0.19-2.9c0.74-0.81,2.03-0.81,2.9-0.02
								C769.98,57.89,770.07,59.19,769.32,60.01z"/>
							<path class="st6" d="M750.92,78.39c-0.81,0.75-2.12,0.66-2.92-0.2c-0.8-0.86-0.79-2.16,0.01-2.9c0.8-0.74,2.11-0.65,2.92,0.2
								S751.73,77.64,750.92,78.39z"/>
							<path class="st6" d="M731.39,95.56c-0.86,0.7-2.15,0.53-2.9-0.38c-0.74-0.91-0.66-2.2,0.19-2.89s2.14-0.52,2.9,0.38
								C732.33,93.56,732.24,94.86,731.39,95.56z"/>
							<path class="st6" d="M710.85,111.51c-0.9,0.64-2.19,0.38-2.87-0.57c-0.69-0.95-0.52-2.23,0.37-2.87
								c0.9-0.62,2.17-0.39,2.86,0.55C711.91,109.58,711.76,110.88,710.85,111.51z"/>
							<path class="st6" d="M689.38,126.16c-0.92,0.61-2.18,0.29-2.81-0.7c-0.63-0.99-0.4-2.28,0.52-2.88
								c0.91-0.6,2.17-0.29,2.81,0.7S690.3,125.56,689.38,126.16z"/>
							<path class="st6" d="M667.09,139.53c-0.97,0.54-2.21,0.14-2.78-0.88s-0.26-2.29,0.7-2.82c0.96-0.53,2.2-0.14,2.78,0.88
								C668.36,137.73,668.05,139,667.09,139.53z"/>
							<path class="st6" d="M644.09,151.66c-0.99,0.5-2.2,0.05-2.71-1.01s-0.13-2.31,0.84-2.81c0.97-0.49,2.19-0.04,2.71,1.01
								C645.45,149.9,645.08,151.16,644.09,151.66z"/>
							<path class="st6" d="M620.43,162.41c-1.02,0.42-2.22-0.12-2.67-1.2s0-2.3,1.01-2.71s2.21,0.12,2.67,1.2
								S621.46,161.99,620.43,162.41z"/>
							<path class="st6" d="M596.23,171.87c-1.04,0.38-2.2-0.21-2.59-1.31c-0.39-1.11,0.12-2.31,1.15-2.68
								c1.03-0.38,2.19,0.21,2.59,1.31S597.27,171.49,596.23,171.87z"/>
							<path class="st6" d="M571.58,180.09c-1.05,0.34-2.18-0.3-2.51-1.43c-0.33-1.12,0.24-2.31,1.28-2.64s2.17,0.31,2.51,1.43
								C573.21,178.58,572.63,179.76,571.58,180.09z"/>
							<path class="st6" d="M546.53,186.99c-1.08,0.25-2.17-0.47-2.45-1.61c-0.28-1.14,0.36-2.26,1.43-2.51s2.16,0.48,2.45,1.61
								S547.61,186.74,546.53,186.99z"/>
							<path class="st6" d="M521.16,192.58c-1.09,0.2-2.14-0.57-2.37-1.72s0.47-2.25,1.54-2.45s2.13,0.57,2.37,1.72
								C522.94,191.28,522.25,192.38,521.16,192.58z"/>
							<path class="st6" d="M495.57,196.98c-1.09,0.16-2.11-0.65-2.28-1.82c-0.17-1.16,0.57-2.23,1.66-2.39s2.1,0.66,2.28,1.82
								C497.4,195.75,496.66,196.82,495.57,196.98z"/>
							<path class="st6" d="M469.8,200.21c-1.1,0.11-2.08-0.74-2.2-1.91c-0.12-1.17,0.67-2.2,1.76-2.32
								c1.09-0.11,2.07,0.74,2.2,1.91C471.69,199.06,470.9,200.1,469.8,200.21z"/>
							<path class="st6" d="M443.93,202.32c-1.1,0.07-2.05-0.83-2.11-2c-0.07-1.17,0.77-2.17,1.86-2.24c1.09-0.07,2.04,0.83,2.11,2
								C445.86,201.25,445.03,202.25,443.93,202.32z"/>
							<path class="st6" d="M417.99,203.35c-1.1,0.02-2.01-0.91-2.03-2.08s0.85-2.14,1.95-2.16c1.09-0.02,2,0.91,2.03,2.08
								C419.96,202.36,419.09,203.33,417.99,203.35z"/>
							<path class="st6" d="M392.03,203.35c-1.1-0.02-1.97-0.99-1.95-2.16c0.03-1.17,0.94-2.11,2.03-2.08
								c1.09,0.02,1.97,0.99,1.95,2.16S393.14,203.37,392.03,203.35z"/>
							<path class="st6" d="M366.1,202.32c-1.1-0.07-1.93-1.07-1.86-2.24c0.08-1.17,1.02-2.07,2.11-2c1.09,0.07,1.92,1.07,1.86,2.24
								C368.14,201.49,367.2,202.39,366.1,202.32z"/>
							<path class="st6" d="M340.22,200.21c-1.1-0.11-1.89-1.15-1.76-2.32c0.13-1.17,1.11-2.02,2.2-1.91
								c1.09,0.11,1.88,1.15,1.76,2.32C342.3,199.47,341.32,200.32,340.22,200.21z"/>
							<path class="st6" d="M314.46,196.98c-1.09-0.16-1.83-1.23-1.66-2.39c0.18-1.16,1.2-1.97,2.28-1.82
								c1.08,0.16,1.82,1.22,1.66,2.39S315.55,197.13,314.46,196.98z"/>
							<path class="st6" d="M288.86,192.58c-1.09-0.2-1.78-1.3-1.54-2.45c0.23-1.15,1.29-1.92,2.37-1.72s1.77,1.3,1.54,2.45
								S289.94,192.78,288.86,192.58z"/>
							<path class="st6" d="M263.49,186.99c-1.08-0.25-1.71-1.37-1.43-2.51c0.29-1.14,1.39-1.86,2.45-1.61s1.7,1.37,1.43,2.51
								C265.66,186.51,264.57,187.24,263.49,186.99z"/>
							<path class="st6" d="M238.44,180.09c-1.05-0.34-1.62-1.52-1.28-2.64c0.35-1.12,1.47-1.76,2.51-1.43s1.61,1.51,1.28,2.64
								C240.62,179.79,239.49,180.43,238.44,180.09z"/>
							<path class="st6" d="M213.79,171.87c-1.04-0.38-1.55-1.58-1.15-2.68c0.4-1.1,1.56-1.69,2.59-1.31
								c1.03,0.38,1.54,1.58,1.15,2.68C215.99,171.66,214.83,172.25,213.79,171.87z"/>
							<path class="st6" d="M189.59,162.41c-1.02-0.42-1.47-1.64-1.01-2.71c0.46-1.08,1.66-1.61,2.67-1.2s1.46,1.63,1.01,2.71
								S190.61,162.83,189.59,162.41z"/>
							<path class="st6" d="M165.93,151.66c-0.99-0.5-1.36-1.76-0.84-2.81c0.52-1.05,1.73-1.5,2.71-1.01
								c0.97,0.49,1.35,1.75,0.84,2.81S166.92,152.15,165.93,151.66z"/>
							<path class="st6" d="M142.94,139.53c-0.97-0.54-1.28-1.8-0.7-2.82c0.58-1.02,1.83-1.41,2.78-0.88
								c0.96,0.53,1.27,1.79,0.7,2.82C145.15,139.67,143.9,140.07,142.94,139.53z"/>
							<path class="st6" d="M120.65,126.16c-0.92-0.61-1.16-1.89-0.52-2.88c0.64-0.98,1.9-1.3,2.81-0.7
								c0.91,0.6,1.15,1.89,0.52,2.88C122.83,126.46,121.57,126.77,120.65,126.16z"/>
							<path class="st6" d="M99.17,111.51c-0.91-0.63-1.06-1.93-0.36-2.88c0.69-0.94,1.97-1.18,2.86-0.55
								c0.89,0.63,1.06,1.91,0.37,2.87C101.36,111.89,100.08,112.14,99.17,111.51z"/>
							<path class="st6" d="M78.64,95.56c-0.86-0.7-0.94-1.99-0.19-2.89c0.75-0.9,2.05-1.07,2.9-0.38s0.93,1.98,0.19,2.89
								C80.79,96.08,79.5,96.25,78.64,95.56z"/>
							<path class="st6" d="M59.1,78.39c-0.81-0.75-0.82-2.05-0.01-2.9c0.81-0.85,2.11-0.94,2.92-0.2c0.8,0.74,0.81,2.04,0.01,2.9
								C61.22,79.05,59.92,79.14,59.1,78.39z"/>
							<path class="st6" d="M40.7,60.01c-0.75-0.82-0.65-2.12,0.21-2.92s2.16-0.79,2.9,0.02c0.73,0.81,0.66,2.09-0.19,2.9
								C42.76,60.81,41.44,60.83,40.7,60.01z"/>
							<path class="st6" d="M23.62,40.37c-0.68-0.87-0.49-2.17,0.43-2.9c0.92-0.73,2.21-0.62,2.88,0.23
								c0.69,0.84,0.52,2.12-0.39,2.87C25.63,41.31,24.32,41.22,23.62,40.37z"/>
							<path class="st6" d="M9.01,16.43c1.01-0.59,2.27-0.35,2.84,0.56c0.57,0.91,0.27,2.16-0.71,2.8
								c-0.98,0.64-2.28,0.42-2.88-0.54C7.67,18.31,7.99,17.02,9.01,16.43z"/>
						</g>
					</g>
				</g>
			</g>
			<g>
				<text transform="matrix(1 0 0 1 767.8235 22.8232)" class="st7 st8 st9">2000</text>
			</g>
			<g>
				<text transform="matrix(1 0 0 1 15.9544 21.5952)" class="st7 st8 st9">1500</text>
			</g>
			<g>
				<text transform="matrix(1 0 0 1 101.9329 112.4858)" class="st7 st8 st9">1000</text>
			</g>
			<g>
				<text transform="matrix(1 0 0 1 217.9119 170.2148)" class="st7 st8 st9">500</text>
			</g>
			<g>
				<text transform="matrix(1 0 0 1 688.5715 102.4858)" class="st7 st8 st9">1500</text>
			</g>
			<g>
				<text transform="matrix(1 0 0 1 573.9583 166.8291)" class="st7 st8 st9">1000</text>
			</g>
			<g>
				<text transform="matrix(1 0 0 1 463.4055 193.6226)" class="st7 st8 st9">500</text>
			</g>
		</g>
	</g>
	<line class="st10" x1="342.86" y1="172.1" x2="338.51" y2="232.16"/>
	<g>
		<text transform="matrix(1 0 0 1 309.597 229.355)" class="st7 st8 st9">BC</text>
	</g>
	<g>
		<g>
			<path class="st11" d="M297.3,221.87c0,0-37.41-3.53-65.95-11.35"/>
			<g>
				<path class="st12" d="M239.16,207.51c0.09,0.26-0.06,0.54-0.32,0.63l-7.26,2.4l5.25,5.56c0.19,0.2,0.18,0.52-0.02,0.71
					c-0.2,0.19-0.52,0.18-0.71-0.02l-5.79-6.14c-0.12-0.12-0.16-0.3-0.12-0.47c0.04-0.17,0.17-0.3,0.33-0.35l8.01-2.65
					c0.09-0.03,0.19-0.03,0.28-0.01C238.97,207.23,239.1,207.35,239.16,207.51z"/>
			</g>
		</g>
	</g>
</g>
</svg>
